<?xml version="1.0" encoding="UTF-8"?>
<!-- Favicon derived directly from the final master SVG to ensure consistency -->
<svg width="512" height="512" viewBox="0 0 512 512" xmlns="http://www.w3.org/2000/svg" version="1.1">
  <defs>
    <linearGradient id="capeGrad" x1="0" y1="0" x2="1" y2="1">
      <stop offset="0%" stop-color="#F43F5E"/>
      <stop offset="100%" stop-color="#BE123C"/>
    </linearGradient>
    <linearGradient id="capeShine" x1="0" y1="0" x2="1" y2="1">
      <stop offset="0%" stop-color="#FFFFFF" stop-opacity="0.35"/>
      <stop offset="60%" stop-color="#FFFFFF" stop-opacity="0.0"/>
      <stop offset="100%" stop-color="#FFFFFF" stop-opacity="0.0"/>
    </linearGradient>
    <linearGradient id="hoodGrad" x1="0" y1="0" x2="0" y2="1">
      <stop offset="0%" stop-color="#9F1239"/>
      <stop offset="100%" stop-color="#7F1D1D"/>
    </linearGradient>
    <linearGradient id="hoodShine" x1="0" y1="0" x2="1" y2="0">
      <stop offset="0%" stop-color="#FFFFFF" stop-opacity="0.25"/>
      <stop offset="100%" stop-color="#FFFFFF" stop-opacity="0"/>
    </linearGradient>
  </defs>
  <rect width="512" height="512" fill="#0b1220"/>
  <g transform="translate(256,256)">
    <circle r="220" fill="#3B82F6"/>
    <circle r="192" fill="#2D5FE8"/>
    <circle r="168" fill="#10B981"/>
    <circle r="140" fill="#059669"/>
    <circle r="114" fill="#14B8A6"/>
    <circle r="90"  fill="#3DD6C6"/>

    <path d="M 26 -58 C 138 -120, 216 -24, 156 88 C 120 132, 34 110, 22 34 L 30 -20 Z" fill="#000" opacity="0.18"/>
    <path d="M 28 -60 C 140 -122, 218 -28, 158 86 C 122 130, 36 108, 24 32 L 32 -22 Z" fill="url(#capeGrad)"/>
    <path d="M 30 -60 C 132 -116, 210 -30, 152 80" fill="none" stroke="url(#capeShine)" stroke-width="10" stroke-linecap="round"/>

    <path d="M -12 -40 C -44 -24, -66 -18, -96 -12" stroke="#60A5FA" stroke-width="8" fill="none" stroke-linecap="round"/>
    <path d="M 12 -40 C 44 -24, 66 -18, 96 -12" stroke="#60A5FA" stroke-width="8" fill="none" stroke-linecap="round"/>

    <rect x="-58" y="-58" width="116" height="116" rx="8" ry="8" fill="none" stroke="#F59E0B" stroke-width="12"/>
    <rect x="-38" y="-38" width="76" height="76" rx="6" ry="6" fill="none" stroke="#22D3EE" stroke-width="12"/>
    <rect x="-22" y="-22" width="44" height="44" rx="6" ry="6" fill="#0b1220" stroke="#1E3A8A" stroke-width="10"/>

    <g transform="translate(-96,-12)">
      <ellipse cx="0" cy="0" rx="11" ry="9" fill="#F3F4F6" stroke="#0b1220" stroke-width="3"/>
      <circle cx="-6.5" cy="-9" r="3" fill="#F3F4F6" stroke="#0b1220" stroke-width="2"/>
      <circle cx="0" cy="-10" r="3" fill="#F3F4F6" stroke="#0b1220" stroke-width="2"/>
      <circle cx="6.5" cy="-9" r="3" fill="#F3F4F6" stroke="#0b1220" stroke-width="2"/>
    </g>
    <g transform="translate(96,-12)">
      <ellipse cx="0" cy="0" rx="11" ry="9" fill="#F3F4F6" stroke="#0b1220" stroke-width="3"/>
      <circle cx="-6.5" cy="-9" r="3" fill="#F3F4F6" stroke="#0b1220" stroke-width="2"/>
      <circle cx="0" cy="-10" r="3" fill="#F3F4F6" stroke="#0b1220" stroke-width="2"/>
      <circle cx="6.5" cy="-9" r="3" fill="#F3F4F6" stroke="#0b1220" stroke-width="2"/>
    </g>

    <!-- Additional details present in master icon -->
    <circle cx="30" cy="-40" r="6" fill="#22D3EE" stroke="#0b1220" stroke-width="4"/>
    <path d="M -80 -86 C -28 -130, 28 -130, 80 -86 C 82 -44, 38 -28, 0 -30 C -38 -28, -82 -44, -80 -86 Z" fill="url(#hoodGrad)"/>
    <path d="M -64 -92 C -18 -118, 18 -118, 64 -92" fill="none" stroke="url(#hoodShine)" stroke-width="8" stroke-linecap="round"/>
    <circle cx="0" cy="-56" r="12" fill="#E5E7EB" opacity="0.95"/>
    <circle cx="0" cy="-54" r="12" fill="#0b1220" opacity="0.2"/>
    <g fill="#1E3A8A">
      <rect x="-78" y="-40" width="16" height="10" rx="2"/>
      <rect x="-78" y="-20" width="16" height="10" rx="2"/>
      <rect x="-78" y="0" width="16" height="10" rx="2"/>
      <rect x="-78" y="20" width="16" height="10" rx="2"/>
      <rect x="-78" y="40" width="16" height="10" rx="2"/>
    </g>
    <g fill="#1E3A8A">
      <rect x="62" y="-40" width="16" height="10" rx="2"/>
      <rect x="62" y="-20" width="16" height="10" rx="2"/>
      <rect x="62" y="0" width="16" height="10" rx="2"/>
      <rect x="62" y="20" width="16" height="10" rx="2"/>
      <rect x="62" y="40" width="16" height="10" rx="2"/>
    </g>
    <rect x="-18" y="50" width="12" height="26" rx="4" fill="#1E3A8A"/>
    <rect x="6" y="50" width="12" height="26" rx="4" fill="#1E3A8A"/>
    <rect x="-22" y="74" width="18" height="6" rx="3" fill="#3B82F6"/>
    <rect x="6" y="74" width="18" height="6" rx="3" fill="#3B82F6"/>
  </g>
  <ellipse cx="256" cy="338" rx="128" ry="42" fill="#000" opacity="0.08"/>
  <title>Chip Companion App Icon</title>
  <desc>Refined concentric rings with a central microchip mark in brand blues/greens with amber accent.</desc>
</svg>